<svg width="66" height="47" viewBox="0 0 66 47" fill="none" xmlns="http://www.w3.org/2000/svg">
<g filter="url(#filter0_d_15891_25421)">
<path d="M15.864 25.0879C15.736 25.0879 15.632 25.0599 15.552 25.0039C15.48 24.9399 15.436 24.8599 15.42 24.7639C15.412 24.6599 15.436 24.5439 15.492 24.4159L18.792 16.9039C18.864 16.7439 18.948 16.6319 19.044 16.5679C19.148 16.4959 19.26 16.4599 19.38 16.4599C19.5 16.4599 19.608 16.4959 19.704 16.5679C19.808 16.6319 19.892 16.7439 19.956 16.9039L23.268 24.4159C23.332 24.5439 23.356 24.6599 23.34 24.7639C23.332 24.8679 23.292 24.9479 23.22 25.0039C23.148 25.0599 23.048 25.0879 22.92 25.0879C22.776 25.0879 22.66 25.0519 22.572 24.9799C22.484 24.8999 22.412 24.7879 22.356 24.6439L21.468 22.5919L21.948 22.8439H16.788L17.28 22.5919L16.404 24.6439C16.332 24.7959 16.256 24.9079 16.176 24.9799C16.096 25.0519 15.992 25.0879 15.864 25.0879ZM19.368 17.6959L17.436 22.2439L17.148 22.0159H21.588L21.324 22.2439L19.392 17.6959H19.368ZM26.8156 25.1119C26.2956 25.1119 25.8396 24.9879 25.4476 24.7399C25.0636 24.4919 24.7636 24.1439 24.5476 23.6959C24.3396 23.2399 24.2356 22.7039 24.2356 22.0879C24.2356 21.4639 24.3396 20.9279 24.5476 20.4799C24.7636 20.0239 25.0636 19.6759 25.4476 19.4359C25.8396 19.1879 26.2956 19.0639 26.8156 19.0639C27.3436 19.0639 27.7956 19.1959 28.1716 19.4599C28.5476 19.7239 28.7996 20.0799 28.9276 20.5279H28.7956V16.9519C28.7956 16.7919 28.8356 16.6719 28.9156 16.5919C29.0036 16.5039 29.1276 16.4599 29.2876 16.4599C29.4396 16.4599 29.5556 16.5039 29.6356 16.5919C29.7236 16.6719 29.7676 16.7919 29.7676 16.9519V24.5839C29.7676 24.7439 29.7276 24.8679 29.6476 24.9559C29.5676 25.0439 29.4476 25.0879 29.2876 25.0879C29.1356 25.0879 29.0156 25.0439 28.9276 24.9559C28.8476 24.8679 28.8076 24.7439 28.8076 24.5839V23.4439L28.9396 23.6119C28.8116 24.0679 28.5556 24.4319 28.1716 24.7039C27.7956 24.9759 27.3436 25.1119 26.8156 25.1119ZM27.0196 24.3319C27.3796 24.3319 27.6956 24.2439 27.9676 24.0679C28.2396 23.8919 28.4476 23.6359 28.5916 23.2999C28.7436 22.9639 28.8196 22.5599 28.8196 22.0879C28.8196 21.3599 28.6556 20.8039 28.3276 20.4199C28.0076 20.0359 27.5716 19.8439 27.0196 19.8439C26.6516 19.8439 26.3316 19.9319 26.0596 20.1079C25.7956 20.2759 25.5876 20.5279 25.4356 20.8639C25.2916 21.1919 25.2196 21.5999 25.2196 22.0879C25.2196 22.8079 25.3836 23.3639 25.7116 23.7559C26.0396 24.1399 26.4756 24.3319 27.0196 24.3319ZM32.0717 25.0639C31.9117 25.0639 31.7917 25.0199 31.7117 24.9319C31.6317 24.8359 31.5917 24.7039 31.5917 24.5359V19.6279C31.5917 19.4599 31.6317 19.3319 31.7117 19.2439C31.7917 19.1559 31.9117 19.1119 32.0717 19.1119C32.2237 19.1119 32.3437 19.1559 32.4317 19.2439C32.5197 19.3319 32.5637 19.4599 32.5637 19.6279V24.5359C32.5637 24.7039 32.5197 24.8359 32.4317 24.9319C32.3517 25.0199 32.2317 25.0639 32.0717 25.0639ZM32.0717 17.7679C31.8717 17.7679 31.7157 17.7159 31.6037 17.6119C31.4917 17.4999 31.4357 17.3519 31.4357 17.1679C31.4357 16.9759 31.4917 16.8319 31.6037 16.7359C31.7157 16.6319 31.8717 16.5799 32.0717 16.5799C32.2797 16.5799 32.4357 16.6319 32.5397 16.7359C32.6517 16.8319 32.7077 16.9759 32.7077 17.1679C32.7077 17.3519 32.6517 17.4999 32.5397 17.6119C32.4357 17.7159 32.2797 17.7679 32.0717 17.7679ZM36.7208 25.1119C36.2648 25.1119 35.8808 25.0319 35.5688 24.8719C35.2648 24.7039 35.0368 24.4639 34.8848 24.1519C34.7328 23.8319 34.6568 23.4439 34.6568 22.9879V19.9279H33.8528C33.7168 19.9279 33.6128 19.8959 33.5408 19.8319C33.4688 19.7599 33.4327 19.6639 33.4327 19.5439C33.4327 19.4239 33.4688 19.3319 33.5408 19.2679C33.6128 19.2039 33.7168 19.1719 33.8528 19.1719H34.6568V17.7919C34.6568 17.6319 34.7008 17.5119 34.7888 17.4319C34.8768 17.3439 34.9968 17.2999 35.1488 17.2999C35.3008 17.2999 35.4168 17.3439 35.4968 17.4319C35.5848 17.5119 35.6288 17.6319 35.6288 17.7919V19.1719H37.1408C37.2768 19.1719 37.3808 19.2039 37.4528 19.2679C37.5248 19.3319 37.5608 19.4239 37.5608 19.5439C37.5608 19.6639 37.5248 19.7599 37.4528 19.8319C37.3808 19.8959 37.2768 19.9279 37.1408 19.9279H35.6288V22.8919C35.6288 23.3479 35.7248 23.6959 35.9168 23.9359C36.1088 24.1679 36.4208 24.2839 36.8528 24.2839C37.0048 24.2839 37.1328 24.2679 37.2368 24.2359C37.3488 24.2039 37.4408 24.1879 37.5128 24.1879C37.5848 24.1799 37.6448 24.2039 37.6928 24.2599C37.7408 24.3159 37.7648 24.4119 37.7648 24.5479C37.7648 24.6439 37.7448 24.7319 37.7048 24.8119C37.6728 24.8919 37.6128 24.9479 37.5248 24.9799C37.4288 25.0119 37.3008 25.0399 37.1408 25.0639C36.9888 25.0959 36.8488 25.1119 36.7208 25.1119ZM39.9424 27.2479C39.8224 27.2479 39.7264 27.2159 39.6544 27.1519C39.5824 27.0879 39.5384 26.9999 39.5224 26.8879C39.5144 26.7839 39.5344 26.6759 39.5824 26.5639L40.4104 24.7039V25.1239L38.1064 19.7719C38.0584 19.6519 38.0424 19.5399 38.0584 19.4359C38.0744 19.3319 38.1224 19.2479 38.2024 19.1839C38.2824 19.1199 38.3944 19.0879 38.5384 19.0879C38.6664 19.0879 38.7664 19.1159 38.8384 19.1719C38.9104 19.2279 38.9744 19.3279 39.0304 19.4719L40.9984 24.2959H40.6744L42.6664 19.4719C42.7304 19.3279 42.7984 19.2279 42.8704 19.1719C42.9424 19.1159 43.0464 19.0879 43.1824 19.0879C43.3104 19.0879 43.4064 19.1199 43.4704 19.1839C43.5424 19.2479 43.5824 19.3319 43.5904 19.4359C43.6064 19.5319 43.5904 19.6399 43.5424 19.7599L40.4704 26.8639C40.4064 27.0079 40.3344 27.1079 40.2544 27.1639C40.1824 27.2199 40.0784 27.2479 39.9424 27.2479ZM46.5293 25.1119C46.1293 25.1119 45.7693 25.0359 45.4493 24.8839C45.1373 24.7239 44.8893 24.5079 44.7053 24.2359C44.5213 23.9639 44.4293 23.6599 44.4293 23.3239C44.4293 22.8919 44.5373 22.5519 44.7533 22.3039C44.9773 22.0559 45.3413 21.8799 45.8453 21.7759C46.3573 21.6719 47.0533 21.6199 47.9333 21.6199H48.4733V22.2559H47.9453C47.2973 22.2559 46.7853 22.2879 46.4093 22.3519C46.0413 22.4079 45.7813 22.5079 45.6293 22.6519C45.4853 22.7959 45.4133 22.9999 45.4133 23.2639C45.4133 23.5919 45.5253 23.8599 45.7493 24.0679C45.9813 24.2759 46.2933 24.3799 46.6853 24.3799C47.0053 24.3799 47.2853 24.3039 47.5253 24.1519C47.7733 23.9999 47.9653 23.7919 48.1013 23.5279C48.2453 23.2639 48.3173 22.9599 48.3173 22.6159V21.2479C48.3173 20.7519 48.2173 20.3959 48.0173 20.1799C47.8173 19.9559 47.4893 19.8439 47.0333 19.8439C46.7533 19.8439 46.4733 19.8799 46.1933 19.9519C45.9133 20.0239 45.6173 20.1399 45.3053 20.2999C45.1933 20.3559 45.0973 20.3759 45.0173 20.3599C44.9373 20.3359 44.8733 20.2919 44.8253 20.2279C44.7773 20.1639 44.7493 20.0919 44.7413 20.0119C44.7333 19.9239 44.7493 19.8399 44.7893 19.7599C44.8373 19.6799 44.9093 19.6159 45.0053 19.5679C45.3573 19.3919 45.7053 19.2639 46.0493 19.1839C46.3933 19.1039 46.7213 19.0639 47.0333 19.0639C47.5373 19.0639 47.9533 19.1479 48.2813 19.3159C48.6093 19.4759 48.8533 19.7239 49.0133 20.0599C49.1733 20.3879 49.2533 20.8119 49.2533 21.3319V24.5839C49.2533 24.7439 49.2133 24.8679 49.1333 24.9559C49.0613 25.0439 48.9533 25.0879 48.8093 25.0879C48.6573 25.0879 48.5413 25.0439 48.4613 24.9559C48.3813 24.8679 48.3413 24.7439 48.3413 24.5839V23.6479H48.4493C48.3853 23.9519 48.2613 24.2119 48.0773 24.4279C47.9013 24.6439 47.6813 24.8119 47.4173 24.9319C47.1533 25.0519 46.8573 25.1119 46.5293 25.1119Z" fill="#2F2F2F"/>
</g>
<defs>
<filter id="filter0_d_15891_25421" x="0.995999" y="6.85101" width="62.6691" height="39.613" filterUnits="userSpaceOnUse" color-interpolation-filters="sRGB">
<feFlood flood-opacity="0" result="BackgroundImageFix"/>
<feColorMatrix in="SourceAlpha" type="matrix" values="0 0 0 0 0 0 0 0 0 0 0 0 0 0 0 0 0 0 127 0" result="hardAlpha"/>
<feOffset dy="4.80399"/>
<feGaussianBlur stdDeviation="7.20598"/>
<feComposite in2="hardAlpha" operator="out"/>
<feColorMatrix type="matrix" values="0 0 0 0 0.279167 0 0 0 0 0.279167 0 0 0 0 0.279167 0 0 0 0.08 0"/>
<feBlend mode="normal" in2="BackgroundImageFix" result="effect1_dropShadow_15891_25421"/>
<feBlend mode="normal" in="SourceGraphic" in2="effect1_dropShadow_15891_25421" result="shape"/>
</filter>
</defs>
</svg>
