<svg width="46" height="15" viewBox="0 0 46 15" fill="none" xmlns="http://www.w3.org/2000/svg">
<path d="M1.152 12.112C0.981333 12.112 0.842667 12.0747 0.736 12C0.64 11.9147 0.581333 11.808 0.56 11.68C0.549333 11.5413 0.581333 11.3867 0.656 11.216L5.056 1.2C5.152 0.986666 5.264 0.837333 5.392 0.752C5.53067 0.656 5.68 0.608 5.84 0.608C6 0.608 6.144 0.656 6.272 0.752C6.41067 0.837333 6.52267 0.986666 6.608 1.2L11.024 11.216C11.1093 11.3867 11.1413 11.5413 11.12 11.68C11.1093 11.8187 11.056 11.9253 10.96 12C10.864 12.0747 10.7307 12.112 10.56 12.112C10.368 12.112 10.2133 12.064 10.096 11.968C9.97867 11.8613 9.88267 11.712 9.808 11.52L8.624 8.784L9.264 9.12H2.384L3.04 8.784L1.872 11.52C1.776 11.7227 1.67467 11.872 1.568 11.968C1.46133 12.064 1.32267 12.112 1.152 12.112ZM5.824 2.256L3.248 8.32L2.864 8.016H8.784L8.432 8.32L5.856 2.256H5.824ZM15.7541 12.144C15.0608 12.144 14.4528 11.9787 13.9301 11.648C13.4181 11.3173 13.0181 10.8533 12.7301 10.256C12.4528 9.648 12.3141 8.93333 12.3141 8.112C12.3141 7.28 12.4528 6.56533 12.7301 5.968C13.0181 5.36 13.4181 4.896 13.9301 4.576C14.4528 4.24533 15.0608 4.08 15.7541 4.08C16.4581 4.08 17.0608 4.256 17.5621 4.608C18.0635 4.96 18.3995 5.43467 18.5701 6.032H18.3941V1.264C18.3941 1.05067 18.4475 0.890666 18.5541 0.783999C18.6715 0.666666 18.8368 0.608 19.0501 0.608C19.2528 0.608 19.4075 0.666666 19.5141 0.783999C19.6315 0.890666 19.6901 1.05067 19.6901 1.264V11.44C19.6901 11.6533 19.6368 11.8187 19.5301 11.936C19.4235 12.0533 19.2635 12.112 19.0501 12.112C18.8475 12.112 18.6875 12.0533 18.5701 11.936C18.4635 11.8187 18.4101 11.6533 18.4101 11.44V9.92L18.5861 10.144C18.4155 10.752 18.0741 11.2373 17.5621 11.6C17.0608 11.9627 16.4581 12.144 15.7541 12.144ZM16.0261 11.104C16.5061 11.104 16.9275 10.9867 17.2901 10.752C17.6528 10.5173 17.9301 10.176 18.1221 9.728C18.3248 9.28 18.4261 8.74133 18.4261 8.112C18.4261 7.14133 18.2075 6.4 17.7701 5.888C17.3435 5.376 16.7621 5.12 16.0261 5.12C15.5355 5.12 15.1088 5.23733 14.7461 5.472C14.3941 5.696 14.1168 6.032 13.9141 6.48C13.7221 6.91733 13.6261 7.46133 13.6261 8.112C13.6261 9.072 13.8448 9.81333 14.2821 10.336C14.7195 10.848 15.3008 11.104 16.0261 11.104ZM22.7623 12.08C22.5489 12.08 22.3889 12.0213 22.2823 11.904C22.1756 11.776 22.1223 11.6 22.1223 11.376V4.832C22.1223 4.608 22.1756 4.43733 22.2823 4.32C22.3889 4.20267 22.5489 4.144 22.7623 4.144C22.9649 4.144 23.1249 4.20267 23.2423 4.32C23.3596 4.43733 23.4183 4.608 23.4183 4.832V11.376C23.4183 11.6 23.3596 11.776 23.2423 11.904C23.1356 12.0213 22.9756 12.08 22.7623 12.08ZM22.7623 2.352C22.4956 2.352 22.2876 2.28267 22.1383 2.144C21.9889 1.99467 21.9143 1.79733 21.9143 1.552C21.9143 1.296 21.9889 1.104 22.1383 0.976C22.2876 0.837333 22.4956 0.768 22.7623 0.768C23.0396 0.768 23.2476 0.837333 23.3863 0.976C23.5356 1.104 23.6103 1.296 23.6103 1.552C23.6103 1.79733 23.5356 1.99467 23.3863 2.144C23.2476 2.28267 23.0396 2.352 22.7623 2.352ZM28.961 12.144C28.353 12.144 27.841 12.0373 27.425 11.824C27.0197 11.6 26.7157 11.28 26.513 10.864C26.3103 10.4373 26.209 9.92 26.209 9.312V5.232H25.137C24.9557 5.232 24.817 5.18933 24.721 5.104C24.625 5.008 24.577 4.88 24.577 4.72C24.577 4.56 24.625 4.43733 24.721 4.352C24.817 4.26667 24.9557 4.224 25.137 4.224H26.209V2.384C26.209 2.17067 26.2677 2.01067 26.385 1.904C26.5023 1.78667 26.6623 1.728 26.865 1.728C27.0677 1.728 27.2223 1.78667 27.329 1.904C27.4463 2.01067 27.505 2.17067 27.505 2.384V4.224H29.521C29.7023 4.224 29.841 4.26667 29.937 4.352C30.033 4.43733 30.081 4.56 30.081 4.72C30.081 4.88 30.033 5.008 29.937 5.104C29.841 5.18933 29.7023 5.232 29.521 5.232H27.505V9.184C27.505 9.792 27.633 10.256 27.889 10.576C28.145 10.8853 28.561 11.04 29.137 11.04C29.3397 11.04 29.5103 11.0187 29.649 10.976C29.7983 10.9333 29.921 10.912 30.017 10.912C30.113 10.9013 30.193 10.9333 30.257 11.008C30.321 11.0827 30.353 11.2107 30.353 11.392C30.353 11.52 30.3263 11.6373 30.273 11.744C30.2303 11.8507 30.1503 11.9253 30.033 11.968C29.905 12.0107 29.7343 12.048 29.521 12.08C29.3183 12.1227 29.1317 12.144 28.961 12.144ZM33.2565 14.992C33.0965 14.992 32.9685 14.9493 32.8725 14.864C32.7765 14.7787 32.7178 14.6613 32.6965 14.512C32.6858 14.3733 32.7125 14.2293 32.7765 14.08L33.8805 11.6V12.16L30.8085 5.024C30.7445 4.864 30.7232 4.71467 30.7445 4.576C30.7658 4.43733 30.8298 4.32533 30.9365 4.24C31.0432 4.15467 31.1925 4.112 31.3845 4.112C31.5552 4.112 31.6885 4.14933 31.7845 4.224C31.8805 4.29867 31.9658 4.432 32.0405 4.624L34.6645 11.056H34.2325L36.8885 4.624C36.9738 4.432 37.0645 4.29867 37.1605 4.224C37.2565 4.14933 37.3952 4.112 37.5765 4.112C37.7472 4.112 37.8752 4.15467 37.9605 4.24C38.0565 4.32533 38.1098 4.43733 38.1205 4.576C38.1418 4.704 38.1205 4.848 38.0565 5.008L33.9605 14.48C33.8752 14.672 33.7792 14.8053 33.6725 14.88C33.5765 14.9547 33.4378 14.992 33.2565 14.992ZM42.039 12.144C41.5057 12.144 41.0257 12.0427 40.599 11.84C40.183 11.6267 39.8523 11.3387 39.607 10.976C39.3617 10.6133 39.239 10.208 39.239 9.76C39.239 9.184 39.383 8.73067 39.671 8.4C39.9697 8.06933 40.455 7.83467 41.127 7.696C41.8097 7.55733 42.7377 7.488 43.911 7.488H44.631V8.336H43.927C43.063 8.336 42.3803 8.37867 41.879 8.464C41.3883 8.53867 41.0417 8.672 40.839 8.864C40.647 9.056 40.551 9.328 40.551 9.68C40.551 10.1173 40.7003 10.4747 40.999 10.752C41.3083 11.0293 41.7243 11.168 42.247 11.168C42.6737 11.168 43.047 11.0667 43.367 10.864C43.6977 10.6613 43.9537 10.384 44.135 10.032C44.327 9.68 44.423 9.27467 44.423 8.816V6.992C44.423 6.33067 44.2897 5.856 44.023 5.568C43.7563 5.26933 43.319 5.12 42.711 5.12C42.3377 5.12 41.9643 5.168 41.591 5.264C41.2177 5.36 40.823 5.51467 40.407 5.728C40.2577 5.80267 40.1297 5.82933 40.023 5.808C39.9163 5.776 39.831 5.71733 39.767 5.632C39.703 5.54667 39.6657 5.45067 39.655 5.344C39.6443 5.22667 39.6657 5.11467 39.719 5.008C39.783 4.90133 39.879 4.816 40.007 4.752C40.4763 4.51733 40.9403 4.34667 41.399 4.24C41.8577 4.13333 42.295 4.08 42.711 4.08C43.383 4.08 43.9377 4.192 44.375 4.416C44.8123 4.62933 45.1377 4.96 45.351 5.408C45.5643 5.84533 45.671 6.41067 45.671 7.104V11.44C45.671 11.6533 45.6177 11.8187 45.511 11.936C45.415 12.0533 45.271 12.112 45.079 12.112C44.8763 12.112 44.7217 12.0533 44.615 11.936C44.5083 11.8187 44.455 11.6533 44.455 11.44V10.192H44.599C44.5137 10.5973 44.3483 10.944 44.103 11.232C43.8683 11.52 43.575 11.744 43.223 11.904C42.871 12.064 42.4763 12.144 42.039 12.144Z" fill="black"/>
</svg>
